<svg width="30.000000" height="30.000000" viewBox="0 0 30 30" fill="none" xmlns="http://www.w3.org/2000/svg" xmlns:xlink="http://www.w3.org/1999/xlink">
	<desc>
			Created with Pixso.
	</desc>
	<defs/>
	<path id="Vector" d="M10.18 13.84C9.31 12.97 7.82 13.41 7.56 14.62C7.45 15.12 7.6 15.64 7.95 16.01L13.33 21.66L28.83 6.16C29.47 5.52 29.47 4.47 28.83 3.83C28.18 3.18 27.14 3.18 26.5 3.83L13.33 17L10.18 13.84ZM26.66 26.66L3.33 26.66L3.33 3.33L19.35 3.33C19.77 3.33 20.17 3.17 20.47 2.89C21.6 1.87 20.87 0 19.35 0L3.33 0C1.5 0 0 1.5 0 3.33L0 26.66C0 28.5 1.5 30 3.33 30L26.66 30C28.5 30 30 28.5 30 26.66L30 14.01C30 12.52 28.18 11.78 27.14 12.84C26.83 13.15 26.66 13.57 26.66 14.01L26.66 26.66Z" fill="#006633" fill-opacity="1.000000" fill-rule="nonzero"/>
</svg>
