<svg width="320.291870" height="248.360352" viewBox="0 0 320.292 248.36" fill="none" xmlns="http://www.w3.org/2000/svg" xmlns:xlink="http://www.w3.org/1999/xlink">
	<desc>
			Created with Pixso.
	</desc>
	<defs/>
	<path id="EMAILinfo@domainname.com PHONE+ 86 99 9999 9999 WORKING HOURS Monday – Thursday: 10.00 AM – 4.00 PM Friday: Close" d="M7.86 1.36L8.06 0L1.35 0L1.35 12.4L8.2 12.4L8.2 11.03L3.06 11.03L3.06 6.78L7.23 6.78L7.23 5.41L3.06 5.41L3.06 1.36L7.86 1.36ZM20.41 12.4L22.07 12.4L21.04 0L18.72 0L16.23 9.01L13.62 0L11.32 0L10.29 12.4L11.91 12.4L12.33 6.93Q12.56 3.97 12.56 1.72L15.39 10.99L16.99 10.99L19.67 1.74Q19.71 3.51 19.98 6.8L20.41 12.4ZM30.65 9.28L31.59 12.4L33.38 12.4L29.43 0L27.27 0L23.29 12.4L25.02 12.4L25.95 9.28L30.65 9.28ZM37.01 12.4L37.01 0L35.3 0L35.3 12.4L37.01 12.4ZM42.32 10.9L42.32 0L40.61 0L40.61 12.4L47.21 12.4L47.41 10.9L42.32 10.9ZM30.24 7.9L26.37 7.9L28.31 1.41L30.24 7.9ZM30.89 87.34Q29.83 86.78 28.47 86.78Q27.27 86.78 26.29 87.24Q26 87.37 25.73 87.54Q25.59 87.64 25.45 87.75Q24.47 88.49 23.89 89.77Q23.23 91.22 23.23 93.22Q23.23 95.26 23.89 96.7Q24.46 97.96 25.44 98.68Q25.58 98.78 25.73 98.87Q25.88 98.97 26.05 99.06Q27.12 99.61 28.47 99.61Q29.8 99.61 30.85 99.07Q31.04 98.97 31.22 98.86Q31.38 98.75 31.53 98.64Q32.49 97.9 33.05 96.66Q33.71 95.22 33.71 93.2Q33.71 91.15 33.05 89.72Q32.48 88.46 31.51 87.73Q31.37 87.62 31.22 87.53Q31.06 87.42 30.89 87.34ZM8.17 87.96Q6.91 87 4.6 87L1.35 87L1.35 99.4L3.06 99.4L3.06 94.84L4.62 94.84Q6.8 94.84 8.12 93.85Q8.44 93.61 8.68 93.3Q9.43 92.36 9.43 90.83Q9.43 89.44 8.77 88.56Q8.51 88.22 8.17 87.96ZM18.74 93.58L18.74 99.4L20.45 99.4L20.45 87L18.74 87L18.74 92.18L13.52 92.18L13.52 87L11.81 87L11.81 99.4L13.52 99.4L13.52 93.58L18.74 93.58ZM42.91 99.4L45.19 99.4L45.19 87L43.59 87L43.59 93.76Q43.59 94.73 43.68 95.91Q43.77 97.08 43.83 97.54L38.73 87L36.5 87L36.5 99.4L38.1 99.4L38.1 93.71Q38.1 92.22 38.04 91.16Q37.97 90.11 37.87 88.87L42.91 99.4ZM55.31 88.36L55.51 87L48.8 87L48.8 99.4L55.65 99.4L55.65 98.03L50.51 98.03L50.51 93.78L54.68 93.78L54.68 92.41L50.51 92.41L50.51 88.36L55.31 88.36ZM26.85 88.59Q27.54 88.18 28.47 88.18Q29.55 88.18 30.29 88.69Q31.89 89.77 31.89 93.2Q31.89 96.62 30.3 97.7Q29.56 98.21 28.47 98.21Q27.56 98.21 26.87 97.81Q26.35 97.52 25.96 97.01Q25.05 95.8 25.05 93.22Q25.05 90.63 25.95 89.41Q26.34 88.89 26.85 88.59ZM6.83 92.92Q6.05 93.49 4.55 93.49L3.06 93.49L3.06 88.33L4.59 88.33Q6.05 88.33 6.83 88.92Q6.95 89.01 7.05 89.11Q7.61 89.71 7.61 90.84Q7.61 92.25 6.91 92.85Q6.87 92.89 6.83 92.92ZM23.06 174.34Q22 173.78 20.64 173.78Q19.44 173.78 18.46 174.24Q18.17 174.37 17.9 174.54Q17.76 174.64 17.62 174.75Q16.64 175.49 16.06 176.77Q15.4 178.22 15.4 180.22Q15.4 182.26 16.06 183.7Q16.63 184.96 17.61 185.68Q17.75 185.78 17.9 185.87Q18.05 185.97 18.22 186.06Q19.29 186.61 20.64 186.61Q21.97 186.61 23.02 186.07Q23.21 185.97 23.39 185.86Q23.55 185.75 23.7 185.64Q24.66 184.9 25.22 183.66Q25.88 182.22 25.88 180.2Q25.88 178.15 25.22 176.72Q24.65 175.46 23.68 174.73Q23.54 174.62 23.39 174.53Q23.23 174.42 23.06 174.34ZM74.36 174.11Q73.51 173.78 72.34 173.78Q71.55 173.78 70.84 174Q70.22 174.18 69.65 174.53Q69.49 174.62 69.35 174.72Q68.33 175.45 67.69 176.72Q66.96 178.17 66.96 180.19Q66.96 183.34 68.33 184.98Q68.76 185.49 69.3 185.84Q70.48 186.61 72.16 186.61Q72.86 186.61 73.54 186.49Q74.92 186.25 76.21 185.51L76.21 179.52L72.12 179.52L72.32 180.91L74.52 180.91L74.52 184.65Q73.53 185.21 72.16 185.21Q71.08 185.21 70.34 184.71Q69.93 184.43 69.63 184.01Q68.77 182.8 68.77 180.19Q68.77 178.46 69.28 177.34Q69.78 176.21 70.58 175.7Q70.99 175.44 71.43 175.31Q71.86 175.18 72.34 175.18Q73.17 175.18 73.78 175.42Q74.39 175.65 75.05 176.19L76.07 175.15Q75.22 174.44 74.36 174.11ZM102.98 174.34Q101.92 173.78 100.56 173.78Q99.36 173.78 98.38 174.24Q98.09 174.37 97.82 174.54Q97.68 174.64 97.54 174.75Q96.56 175.49 95.98 176.77Q95.32 178.22 95.32 180.22Q95.32 182.26 95.98 183.7Q96.55 184.96 97.53 185.68Q97.67 185.78 97.82 185.87Q97.97 185.97 98.14 186.06Q99.21 186.61 100.56 186.61Q101.89 186.61 102.94 186.07Q103.13 185.97 103.31 185.86Q103.47 185.75 103.62 185.64Q104.58 184.9 105.14 183.66Q105.8 182.22 105.8 180.2Q105.8 178.15 105.14 176.72Q104.57 175.46 103.6 174.73Q103.46 174.62 103.31 174.53Q103.15 174.42 102.98 174.34ZM136.45 174.13Q135.58 173.78 134.33 173.78Q133.2 173.78 132.31 174.19Q131.56 174.54 131.09 175.11Q131 175.22 130.92 175.34Q130.75 175.6 130.64 175.87Q130.42 176.4 130.42 177.02Q130.42 178.02 130.88 178.72Q131.06 178.99 131.3 179.22Q132.19 180.02 134.1 180.6Q135.17 180.93 135.74 181.25Q136.31 181.57 136.54 181.98Q136.78 182.38 136.78 183Q136.78 183.71 136.44 184.21Q136.28 184.45 136.02 184.64Q135.99 184.67 135.95 184.7Q135.21 185.21 134.12 185.21Q133.16 185.21 132.38 184.89Q131.61 184.58 130.86 183.97L129.92 185.01Q130.41 185.49 130.98 185.82Q132.33 186.61 134.13 186.61Q135.5 186.61 136.5 186.15Q137.38 185.73 137.89 185.05Q137.96 184.95 138.03 184.85Q138.15 184.66 138.24 184.46Q138.56 183.77 138.56 182.94Q138.56 181.83 138.08 181.1Q137.86 180.75 137.57 180.48Q137.24 180.17 136.83 179.95Q136.06 179.54 134.89 179.18Q133.77 178.84 133.19 178.53Q132.6 178.22 132.38 177.85Q132.17 177.48 132.17 176.95Q132.17 176.4 132.42 176.02Q132.57 175.8 132.8 175.63Q133.43 175.18 134.4 175.18Q135.14 175.18 135.78 175.42Q135.82 175.43 135.85 175.45Q136.53 175.7 137.23 176.26L138.16 175.22Q137.34 174.48 136.45 174.13ZM11.44 186.4L13.97 174L12.4 174L10.33 184.9L7.88 174L6.06 174L3.67 184.9L1.67 174L0 174L2.52 186.4L4.66 186.4L6.96 176.01L9.25 186.4L11.44 186.4ZM30.38 181.14L32.31 181.14L35.28 186.4L37.31 186.4L33.96 180.83Q35.31 180.42 35.98 179.61Q36.03 179.54 36.08 179.47Q36.64 178.69 36.64 177.51Q36.64 176.29 36.07 175.5Q35.81 175.15 35.44 174.88Q34.25 174 31.93 174L28.67 174L28.67 186.4L30.38 186.4L30.38 181.14ZM41.27 186.4L41.27 174L39.56 174L39.56 186.4L41.27 186.4ZM43.32 179.66L48.02 174L46.08 174L41.36 179.77L46.26 186.4L48.36 186.4L43.32 179.66ZM51.87 186.4L51.87 174L50.16 174L50.16 186.4L51.87 186.4ZM61.88 186.4L64.17 186.4L64.17 174L62.56 174L62.56 180.76Q62.56 181.73 62.65 182.91Q62.74 184.08 62.8 184.54L57.71 174L55.47 174L55.47 186.4L57.07 186.4L57.07 180.71Q57.07 179.22 57.01 178.16Q56.95 177.11 56.84 175.87L61.88 186.4ZM90.83 180.58L90.83 186.4L92.54 186.4L92.54 174L90.83 174L90.83 179.18L85.61 179.18L85.61 174L83.9 174L83.9 186.4L85.61 186.4L85.61 180.58L90.83 180.58ZM116.57 184.6Q117.09 183.66 117.09 182.42L117.09 174L115.36 174L115.36 182.29Q115.36 183.75 114.71 184.46Q114.67 184.51 114.63 184.54Q113.99 185.17 112.73 185.17Q111.53 185.17 110.88 184.57Q110.82 184.52 110.77 184.45Q110.12 183.73 110.12 182.29L110.12 174L108.41 174L108.41 182.42Q108.41 183.92 109.11 184.95Q109.3 185.23 109.54 185.47Q109.66 185.6 109.8 185.71Q110.89 186.61 112.73 186.61Q114.1 186.61 115.08 186.08Q115.68 185.76 116.1 185.28Q116.37 184.97 116.57 184.6ZM122.22 181.14L124.14 181.14L127.11 186.4L129.15 186.4L125.8 180.83Q127.15 180.42 127.81 179.61Q127.87 179.54 127.92 179.47Q128.48 178.69 128.48 177.51Q128.48 176.29 127.9 175.5Q127.65 175.15 127.28 174.88Q126.09 174 123.77 174L120.51 174L120.51 186.4L122.22 186.4L122.22 181.14ZM19.02 175.59Q19.71 175.18 20.64 175.18Q21.72 175.18 22.46 175.69Q24.06 176.77 24.06 180.2Q24.06 183.62 22.47 184.7Q21.73 185.21 20.64 185.21Q19.73 185.21 19.04 184.81Q18.52 184.52 18.13 184.01Q17.22 182.8 17.22 180.22Q17.22 177.63 18.12 176.41Q18.51 175.89 19.02 175.59ZM98.94 175.59Q99.63 175.18 100.56 175.18Q101.64 175.18 102.38 175.69Q103.98 176.77 103.98 180.2Q103.98 183.62 102.39 184.7Q101.65 185.21 100.56 185.21Q99.65 185.21 98.96 184.81Q98.44 184.52 98.05 184.01Q97.14 182.8 97.14 180.22Q97.14 177.63 98.04 176.41Q98.43 175.89 98.94 175.59ZM34.14 179.28Q33.46 179.83 32.11 179.83L30.38 179.83L30.38 175.33L31.91 175.33Q33.44 175.33 34.13 175.84Q34.25 175.93 34.35 176.03Q34.82 176.55 34.82 177.51Q34.82 178.6 34.28 179.15Q34.21 179.22 34.14 179.28ZM125.98 179.28Q125.29 179.83 123.95 179.83L122.22 179.83L122.22 175.33L123.75 175.33Q125.28 175.33 125.97 175.84Q126.08 175.93 126.18 176.03Q126.66 176.55 126.66 177.51Q126.66 178.6 126.12 179.15Q126.05 179.22 125.98 179.28Z" fill="#FFFFFF" fill-opacity="0.800000" fill-rule="evenodd"/>
	<path id="EMAILinfo@domainname.com PHONE+ 86 99 9999 9999 WORKING HOURS Monday – Thursday: 10.00 AM – 4.00 PM Friday: Close" d="M2.9 27.15Q2.54 26.94 2.07 26.94Q1.58 26.94 1.21 27.16Q1.07 27.25 0.95 27.36Q0.79 27.52 0.69 27.71Q0.52 28.03 0.52 28.44Q0.52 28.83 0.68 29.14Q0.78 29.34 0.95 29.51Q1.07 29.63 1.21 29.71Q1.58 29.93 2.07 29.93Q2.54 29.93 2.9 29.73Q3.06 29.64 3.19 29.51Q3.38 29.33 3.49 29.11Q3.63 28.81 3.63 28.44Q3.63 28.05 3.48 27.74Q3.37 27.53 3.19 27.36Q3.06 27.24 2.9 27.15ZM99.81 27.15Q99.46 26.94 98.98 26.94Q98.49 26.94 98.13 27.16Q97.99 27.25 97.87 27.36Q97.7 27.52 97.6 27.71Q97.43 28.03 97.43 28.44Q97.43 28.83 97.59 29.14Q97.7 29.34 97.87 29.51Q97.99 29.63 98.13 29.71Q98.49 29.93 98.98 29.93Q99.46 29.93 99.81 29.73Q99.97 29.64 100.1 29.51Q100.29 29.33 100.4 29.11Q100.55 28.81 100.55 28.44Q100.55 28.05 100.39 27.74Q100.28 27.53 100.1 27.36Q99.97 27.24 99.81 27.15ZM19.46 29.99Q19.74 29.68 20.39 29.68Q21.17 29.68 21.94 30.04L22.64 28.34Q22.09 28.08 21.5 27.93Q20.83 27.77 20.12 27.77Q18.53 27.77 17.63 28.56Q17.58 28.6 17.54 28.64Q17.22 28.95 17.01 29.32Q16.63 30 16.63 30.9L16.63 31.86L15.12 31.86L15.12 33.66L16.63 33.66L16.63 41.4L19.18 41.4L19.18 33.66L21.17 33.66L21.45 31.86L19.18 31.86L19.18 30.97Q19.18 30.29 19.46 29.99ZM59.58 41.4L59.58 28.06L57.02 27.77L57.02 32.52Q56.47 31.99 55.82 31.76Q55.29 31.57 54.7 31.57Q53.97 31.57 53.35 31.83Q52.99 31.98 52.67 32.22Q52.59 32.27 52.53 32.32Q51.74 32.95 51.3 34.01Q50.83 35.15 50.83 36.63Q50.83 38.97 51.76 40.33Q52.15 40.9 52.68 41.23Q53.42 41.69 54.44 41.69Q55.26 41.69 55.92 41.36Q56.65 41 57.18 40.23L57.33 41.4L59.58 41.4ZM42.13 32.47Q41.66 32.4 41.18 32.4Q39.87 32.4 38.94 33Q38.5 33.28 38.15 33.68Q37.06 34.97 37.06 37.22Q37.06 39.04 37.89 40.14Q38.15 40.49 38.5 40.73Q39.23 41.23 40.3 41.23Q41.1 41.23 41.69 40.88Q41.79 40.82 41.88 40.75Q42.03 40.64 42.17 40.51Q42.62 40.08 42.89 39.47Q42.94 39.69 43.03 39.89Q43.23 40.37 43.66 40.76Q43.75 40.84 43.85 40.91Q44.41 41.31 45.25 41.31Q45.99 41.31 46.61 41.03Q46.98 40.86 47.3 40.59Q48.17 39.87 48.63 38.61Q49.1 37.34 49.1 35.75Q49.1 34.74 48.83 33.81Q48.6 32.99 48.16 32.24Q47.97 31.91 47.74 31.61Q46.85 30.42 45.41 29.64Q43.61 28.65 41.16 28.65Q39.06 28.65 37.34 29.45Q37.05 29.59 36.77 29.74Q35.73 30.33 34.93 31.15Q34.24 31.86 33.74 32.75Q33.53 33.11 33.36 33.5Q32.65 35.12 32.65 37.06Q32.65 39.56 33.7 41.44Q34.18 42.31 34.86 42.99Q35.64 43.79 36.69 44.34Q38.62 45.36 41.16 45.36Q42.16 45.36 43.13 45.19Q44.24 45 45.32 44.6L44.69 42.8Q43.93 43.07 43.01 43.25Q42.08 43.43 41.18 43.43Q39.2 43.43 37.81 42.64Q37.15 42.27 36.65 41.75Q36.09 41.18 35.72 40.43Q35.01 38.98 35.01 37.04Q35.01 35.13 35.73 33.67Q36.13 32.87 36.73 32.26Q37.22 31.75 37.86 31.38Q39.25 30.56 41.16 30.56Q43.93 30.56 45.34 31.94Q45.57 32.16 45.76 32.4Q46.76 33.7 46.76 35.78Q46.76 37.85 46.34 38.75Q46.03 39.41 45.55 39.58Q45.37 39.65 45.16 39.65Q44.89 39.65 44.71 39.53Q44.54 39.42 44.44 39.21Q44.22 38.77 44.22 37.67L44.22 33.19Q43.21 32.64 42.13 32.47ZM12.85 32.04Q12.2 31.57 11.21 31.57Q10.35 31.57 9.66 31.91Q9.63 31.93 9.6 31.95Q8.89 32.33 8.3 33.06L8.1 31.86L5.88 31.86L5.88 41.4L8.44 41.4L8.44 34.81Q8.85 34.14 9.29 33.81Q9.54 33.63 9.81 33.54Q10.03 33.48 10.27 33.48Q10.7 33.48 10.95 33.69Q11.01 33.73 11.06 33.79Q11.32 34.11 11.32 34.88L11.32 41.4L13.87 41.4L13.87 34.45Q13.87 33.18 13.25 32.42Q13.21 32.38 13.17 32.33Q13.02 32.17 12.85 32.04ZM29.15 32.33Q28.07 31.57 26.46 31.57Q25.04 31.57 24 32.2Q23.63 32.42 23.33 32.71Q22.77 33.23 22.42 33.97Q21.87 35.11 21.87 36.63Q21.87 38.92 23 40.25Q23.04 40.3 23.08 40.35Q23.39 40.69 23.76 40.94Q24.84 41.69 26.44 41.69Q27.82 41.69 28.84 41.08Q28.86 41.07 28.88 41.06Q29.27 40.82 29.58 40.51Q30.12 40 30.46 39.28Q31.01 38.14 31.01 36.63Q31.01 34.31 29.86 32.97Q29.83 32.94 29.8 32.91Q29.51 32.58 29.15 32.33ZM68.8 32.33Q67.72 31.57 66.11 31.57Q64.69 31.57 63.65 32.2Q63.29 32.42 62.98 32.71Q62.43 33.23 62.07 33.97Q61.52 35.11 61.52 36.63Q61.52 38.92 62.65 40.25Q62.69 40.3 62.74 40.35Q63.04 40.69 63.41 40.94Q64.5 41.69 66.09 41.69Q67.47 41.69 68.5 41.08Q68.51 41.07 68.53 41.06Q68.92 40.82 69.24 40.51Q69.77 40 70.11 39.28Q70.66 38.14 70.66 36.63Q70.66 34.31 69.52 32.97Q69.49 32.94 69.46 32.91Q69.16 32.58 68.8 32.33ZM84.18 31.88Q83.64 31.57 82.92 31.57Q82.13 31.57 81.49 31.88Q81.42 31.92 81.35 31.96Q80.66 32.34 80.06 33.12Q79.86 32.58 79.49 32.21Q79.36 32.08 79.2 31.97Q79.1 31.91 79.01 31.86Q78.48 31.57 77.79 31.57Q76.94 31.57 76.28 31.92Q76.26 31.94 76.24 31.95Q75.56 32.33 75.02 33.04L74.82 31.86L72.61 31.86L72.61 41.4L75.16 41.4L75.16 34.81Q75.54 34.14 75.92 33.81Q76.11 33.65 76.33 33.56Q76.55 33.48 76.8 33.48Q77.09 33.48 77.29 33.61Q77.74 33.91 77.74 34.88L77.74 41.4L80.3 41.4L80.3 34.81Q80.69 34.12 81.07 33.8Q81.25 33.65 81.45 33.57Q81.69 33.48 81.95 33.48Q82.24 33.48 82.44 33.61Q82.89 33.91 82.89 34.88L82.89 41.4L85.44 41.4L85.44 34.45Q85.44 33.2 84.83 32.44Q84.79 32.39 84.75 32.34Q84.49 32.06 84.18 31.88ZM95.32 39.57Q95.16 39.31 95.16 38.75L95.16 34.9Q95.16 33.42 94.43 32.6Q94.34 32.5 94.25 32.41Q93.33 31.57 91.38 31.57Q89.64 31.57 87.86 32.27L88.43 33.98Q89.94 33.48 90.95 33.48Q91.87 33.48 92.26 33.82Q92.66 34.16 92.66 35.04L92.66 35.51L91.56 35.51Q89.44 35.51 88.3 36.34Q87.89 36.64 87.63 37.04Q87.17 37.74 87.17 38.73Q87.17 39.64 87.57 40.31Q87.75 40.61 88.01 40.87Q88.16 41.02 88.33 41.14Q89.1 41.69 90.26 41.69Q91.47 41.69 92.29 41.12Q92.78 40.79 93.13 40.25Q93.4 40.88 93.87 41.21Q93.91 41.23 93.95 41.26Q94.48 41.58 95.32 41.65L95.86 39.96Q95.49 39.83 95.32 39.58L95.32 39.57ZM109.76 32.04Q109.12 31.57 108.12 31.57Q107.26 31.57 106.58 31.91Q106.54 31.93 106.51 31.95Q105.8 32.33 105.21 33.06L105.01 31.86L102.8 31.86L102.8 41.4L105.35 41.4L105.35 34.81Q105.77 34.14 106.21 33.81Q106.45 33.63 106.72 33.54Q106.94 33.48 107.19 33.48Q107.61 33.48 107.86 33.69Q107.92 33.73 107.97 33.79Q108.23 34.11 108.23 34.88L108.23 41.4L110.79 41.4L110.79 34.45Q110.79 33.18 110.16 32.42Q110.12 32.38 110.08 32.33Q109.93 32.17 109.76 32.04ZM120.18 32.04Q119.54 31.57 118.54 31.57Q117.69 31.57 117 31.91Q116.96 31.93 116.93 31.95Q116.22 32.33 115.63 33.06L115.43 31.86L113.22 31.86L113.22 41.4L115.77 41.4L115.77 34.81Q116.19 34.14 116.63 33.81Q116.87 33.63 117.14 33.54Q117.37 33.48 117.61 33.48Q118.03 33.48 118.28 33.69Q118.34 33.73 118.39 33.79Q118.65 34.11 118.65 34.88L118.65 41.4L121.21 41.4L121.21 34.45Q121.21 33.18 120.58 32.42Q120.54 32.38 120.5 32.33Q120.36 32.17 120.18 32.04ZM131.09 39.57Q130.93 39.31 130.93 38.75L130.93 34.9Q130.93 33.42 130.2 32.6Q130.11 32.5 130.01 32.41Q129.09 31.57 127.15 31.57Q125.4 31.57 123.62 32.27L124.2 33.98Q125.71 33.48 126.72 33.48Q127.64 33.48 128.03 33.82Q128.43 34.16 128.43 35.04L128.43 35.51L127.33 35.51Q125.2 35.51 124.07 36.34Q123.66 36.64 123.39 37.04Q122.94 37.74 122.94 38.73Q122.94 39.64 123.33 40.31Q123.51 40.61 123.77 40.87Q123.92 41.02 124.09 41.14Q124.87 41.69 126.03 41.69Q127.24 41.69 128.06 41.12Q128.55 40.79 128.9 40.25Q129.16 40.88 129.64 41.21Q129.67 41.23 129.71 41.26Q130.25 41.58 131.09 41.65L131.63 39.96Q131.25 39.83 131.09 39.58L131.09 39.57ZM145.06 31.88Q144.52 31.57 143.8 31.57Q143 31.57 142.36 31.88Q142.29 31.92 142.22 31.96Q141.53 32.34 140.94 33.12Q140.74 32.58 140.37 32.21Q140.23 32.08 140.07 31.97Q139.98 31.91 139.88 31.86Q139.35 31.57 138.67 31.57Q137.82 31.57 137.16 31.92Q137.13 31.94 137.11 31.95Q136.44 32.33 135.9 33.04L135.7 31.86L133.49 31.86L133.49 41.4L136.04 41.4L136.04 34.81Q136.42 34.14 136.8 33.81Q136.98 33.65 137.2 33.56Q137.42 33.48 137.68 33.48Q137.97 33.48 138.17 33.61Q138.61 33.91 138.61 34.88L138.61 41.4L141.17 41.4L141.17 34.81Q141.57 34.12 141.95 33.8Q142.12 33.65 142.33 33.57Q142.56 33.48 142.83 33.48Q143.12 33.48 143.32 33.61Q143.77 33.91 143.77 34.88L143.77 41.4L146.32 41.4L146.32 34.45Q146.32 33.2 145.71 32.44Q145.67 32.39 145.62 32.34Q145.37 32.06 145.06 31.88ZM156.76 37.4Q156.81 36.59 156.81 36.41Q156.81 34.12 155.68 32.85Q155.4 32.53 155.05 32.29Q154.04 31.57 152.51 31.57Q151.37 31.57 150.48 32.05Q150.33 32.14 150.18 32.24Q149.91 32.42 149.68 32.64Q149.06 33.22 148.68 34.06Q148.17 35.22 148.17 36.68Q148.17 38.82 149.22 40.14Q149.29 40.24 149.38 40.34Q149.61 40.6 149.88 40.81Q151.02 41.69 152.84 41.69Q153.73 41.69 154.55 41.43Q155.56 41.11 156.45 40.39L155.39 38.95Q154.76 39.38 154.22 39.58Q154.21 39.58 154.19 39.59Q153.67 39.77 153.07 39.77Q152.18 39.77 151.62 39.34Q151.56 39.29 151.5 39.24Q150.92 38.7 150.8 37.4L156.76 37.4ZM168.32 31.85Q167.56 31.57 166.61 31.57Q165.43 31.57 164.51 32.04Q164.35 32.12 164.2 32.22Q163.88 32.42 163.6 32.67Q162.99 33.23 162.61 34.03Q162.05 35.19 162.05 36.7Q162.05 38.21 162.61 39.34Q162.97 40.05 163.51 40.56Q163.83 40.85 164.2 41.08Q165.24 41.69 166.64 41.69Q167.53 41.69 168.32 41.4Q169.09 41.13 169.77 40.57L168.66 38.97Q168.1 39.33 167.68 39.48Q167.27 39.63 166.77 39.63Q166.14 39.63 165.7 39.35Q165.46 39.19 165.27 38.95Q164.75 38.26 164.75 36.68Q164.75 34.48 165.76 33.82Q166.18 33.55 166.79 33.55Q167.31 33.55 167.75 33.71Q168.19 33.87 168.66 34.23L169.77 32.72Q169.09 32.13 168.32 31.85ZM177.58 32.33Q176.5 31.57 174.88 31.57Q173.47 31.57 172.43 32.2Q172.06 32.42 171.76 32.71Q171.2 33.23 170.85 33.97Q170.3 35.11 170.3 36.63Q170.3 38.92 171.43 40.25Q171.47 40.3 171.51 40.35Q171.82 40.69 172.19 40.94Q173.27 41.69 174.87 41.69Q176.25 41.69 177.27 41.08Q177.29 41.07 177.31 41.06Q177.69 40.82 178.01 40.51Q178.55 40 178.89 39.28Q179.44 38.14 179.44 36.63Q179.44 34.31 178.29 32.97Q178.26 32.94 178.23 32.91Q177.94 32.58 177.58 32.33ZM192.96 31.88Q192.42 31.57 191.7 31.57Q190.9 31.57 190.26 31.88Q190.19 31.92 190.12 31.96Q189.43 32.34 188.83 33.12Q188.64 32.58 188.26 32.21Q188.13 32.08 187.97 31.97Q187.88 31.91 187.78 31.86Q187.25 31.57 186.57 31.57Q185.72 31.57 185.05 31.92Q185.03 31.94 185.01 31.95Q184.33 32.33 183.8 33.04L183.6 31.86L181.38 31.86L181.38 41.4L183.94 41.4L183.94 34.81Q184.32 34.14 184.69 33.81Q184.88 33.65 185.1 33.56Q185.32 33.48 185.58 33.48Q185.87 33.48 186.07 33.61Q186.51 33.91 186.51 34.88L186.51 41.4L189.07 41.4L189.07 34.81Q189.47 34.12 189.84 33.8Q190.02 33.65 190.23 33.57Q190.46 33.48 190.73 33.48Q191.02 33.48 191.22 33.61Q191.66 33.91 191.66 34.88L191.66 41.4L194.22 41.4L194.22 34.45Q194.22 33.2 193.61 32.44Q193.57 32.39 193.52 32.34Q193.27 32.06 192.96 31.88ZM3.36 41.4L3.36 31.86L0.81 31.86L0.81 41.4L3.36 41.4ZM100.27 41.4L100.27 31.86L97.72 31.86L97.72 41.4L100.27 41.4ZM153.53 33.59Q154.27 34.13 154.27 35.69L154.27 35.8L150.8 35.8Q150.89 34.48 151.33 33.9Q151.51 33.66 151.75 33.52Q152.09 33.31 152.56 33.31Q153.15 33.31 153.53 33.59ZM55.98 39.61Q55.63 39.77 55.2 39.77Q54.8 39.77 54.5 39.61Q54.16 39.43 53.93 39.06Q53.49 38.34 53.49 36.63Q53.49 35.01 53.99 34.23Q54.26 33.81 54.65 33.62Q54.97 33.46 55.36 33.46Q55.83 33.46 56.2 33.65Q56.23 33.67 56.26 33.68Q56.64 33.91 57.02 34.36L57.02 38.62Q56.62 39.22 56.19 39.5Q56.09 39.56 55.98 39.61ZM25.5 33.73Q25.89 33.48 26.46 33.48Q27 33.48 27.38 33.72Q27.67 33.91 27.88 34.24Q28.35 35.01 28.35 36.63Q28.35 38.25 27.87 39.01Q27.66 39.35 27.36 39.53Q26.97 39.77 26.44 39.77Q25.91 39.77 25.52 39.54Q25.22 39.35 25.01 39.01Q24.53 38.25 24.53 36.63Q24.53 35.01 25.01 34.24Q25.21 33.92 25.5 33.73ZM65.15 33.73Q65.55 33.48 66.11 33.48Q66.65 33.48 67.03 33.72Q67.33 33.91 67.53 34.24Q68 35.01 68 36.63Q68 38.25 67.52 39.01Q67.31 39.35 67.01 39.53Q66.63 39.77 66.09 39.77Q65.56 39.77 65.18 39.54Q64.87 39.35 64.66 39.01Q64.19 38.25 64.19 36.63Q64.19 35.01 64.66 34.24Q64.86 33.92 65.15 33.73ZM173.93 33.73Q174.32 33.48 174.88 33.48Q175.42 33.48 175.81 33.72Q176.1 33.91 176.3 34.24Q176.77 35.01 176.77 36.63Q176.77 38.25 176.3 39.01Q176.09 39.35 175.79 39.53Q175.4 39.77 174.87 39.77Q174.33 39.77 173.95 39.54Q173.65 39.35 173.43 39.01Q172.96 38.25 172.96 36.63Q172.96 35.01 173.43 34.24Q173.64 33.92 173.93 33.73ZM41.25 39.46Q40.97 39.59 40.62 39.59Q40.28 39.59 40.04 39.44Q39.82 39.3 39.68 39.04Q39.38 38.48 39.38 37.22Q39.38 35.55 39.82 34.79Q40.06 34.38 40.41 34.2Q40.72 34.04 41.11 34.04Q41.56 34.04 42.04 34.23L42.04 38.52Q41.75 39.21 41.25 39.46ZM91.71 39.7Q91.37 39.85 90.97 39.85Q90.48 39.85 90.18 39.61Q90.11 39.56 90.06 39.5Q89.75 39.15 89.75 38.52Q89.75 37.96 90.01 37.6Q90.49 36.97 91.82 36.97L92.66 36.97L92.66 38.79Q92.28 39.45 91.71 39.7ZM127.48 39.7Q127.14 39.85 126.73 39.85Q126.25 39.85 125.95 39.61Q125.88 39.56 125.82 39.5Q125.51 39.15 125.51 38.52Q125.51 37.96 125.78 37.6Q126.26 36.97 127.58 36.97L128.43 36.97L128.43 38.79Q128.04 39.45 127.48 39.7ZM160 38.74Q159.72 38.61 159.37 38.61Q159.07 38.61 158.82 38.71Q158.53 38.82 158.29 39.06Q158.06 39.29 157.94 39.57Q157.84 39.83 157.84 40.14Q157.84 40.43 157.94 40.69Q158.05 40.99 158.29 41.23Q158.53 41.48 158.83 41.59Q159.08 41.69 159.37 41.69Q159.71 41.69 160 41.56Q160.25 41.45 160.47 41.23Q160.71 40.98 160.82 40.68Q160.92 40.43 160.92 40.14Q160.92 39.84 160.82 39.58Q160.7 39.29 160.47 39.06Q160.26 38.85 160 38.74ZM22.47 123.26Q21.87 122.46 20.63 121.88Q22.1 121.1 22.48 119.96Q22.6 119.58 22.6 119.15Q22.6 118.38 22.28 117.78Q21.99 117.25 21.44 116.86Q20.28 116.03 18.52 116.03Q17.37 116.03 16.44 116.43Q15.65 116.76 15.14 117.35Q15.05 117.45 14.97 117.55Q14.8 117.79 14.68 118.06Q14.43 118.6 14.43 119.25Q14.43 119.96 14.7 120.54Q15.12 121.48 16.23 122.11Q14.72 122.78 14.21 123.9Q13.95 124.48 13.95 125.18Q13.95 125.65 14.08 126.09Q14.22 126.54 14.5 126.95Q14.5 126.96 14.5 126.96Q15.05 127.75 16.07 128.22Q17.1 128.69 18.46 128.69Q19.87 128.69 20.91 128.22Q21.92 127.77 22.48 126.99Q22.5 126.96 22.52 126.93Q22.8 126.51 22.94 126.05Q23.07 125.6 23.07 125.12Q23.07 124.44 22.82 123.87Q22.68 123.55 22.47 123.26ZM31.17 120.57Q30.52 120.28 29.73 120.28Q29.06 120.28 28.48 120.51Q27.71 120.81 27.09 121.52Q27.18 119.79 27.84 118.84Q28.22 118.3 28.74 118.06Q29.13 117.89 29.61 117.89Q29.76 117.89 29.92 117.9Q30.63 117.97 31.32 118.37L32.25 116.8Q32.1 116.7 31.94 116.61Q30.91 116.03 29.55 116.03Q28.4 116.03 27.47 116.49Q27.14 116.65 26.84 116.87Q26.81 116.89 26.78 116.91Q25.67 117.74 25.06 119.24Q24.44 120.78 24.44 122.82Q24.44 125.57 25.54 127.13Q25.86 127.59 26.28 127.91Q27.3 128.69 28.92 128.69Q30.03 128.69 30.92 128.24Q31.04 128.18 31.16 128.11Q31.62 127.83 31.99 127.46Q32.38 127.05 32.66 126.52Q32.7 126.45 32.74 126.37Q33.19 125.42 33.19 124.26Q33.19 123 32.74 122.11Q32.39 121.41 31.83 120.97Q31.67 120.85 31.51 120.75Q31.34 120.65 31.17 120.57ZM45.78 116.86Q44.72 116.03 43 116.03Q41.92 116.03 41.02 116.43Q40.9 116.48 40.78 116.54Q40.24 116.83 39.82 117.24Q39.48 117.57 39.22 118Q39.15 118.1 39.1 118.21Q38.64 119.07 38.64 120.17Q38.64 121.38 39.1 122.28Q39.47 123 40.06 123.46Q40.19 123.57 40.34 123.66Q40.64 123.85 40.96 123.96Q41.49 124.15 42.08 124.15Q42.89 124.15 43.54 123.83Q44.16 123.52 44.64 122.91Q44.44 124.05 43.81 124.86Q43.51 125.23 43.13 125.53Q41.92 126.47 39.54 127.07L40.08 128.88Q42.67 128.31 44.25 127.35Q45.3 126.71 45.99 125.8Q46.34 125.33 46.61 124.79Q47.37 123.19 47.37 120.73Q47.37 118.76 46.43 117.52Q46.34 117.41 46.25 117.31Q46.03 117.06 45.78 116.86ZM55.72 116.86Q54.65 116.03 52.93 116.03Q51.86 116.03 50.96 116.43Q50.84 116.48 50.72 116.54Q50.18 116.83 49.76 117.24Q49.41 117.57 49.15 118Q49.09 118.1 49.03 118.21Q48.58 119.07 48.58 120.17Q48.58 121.38 49.04 122.28Q49.41 123 49.99 123.46Q50.13 123.57 50.28 123.66Q50.58 123.85 50.9 123.96Q51.42 124.15 52.02 124.15Q52.82 124.15 53.47 123.83Q54.1 123.52 54.57 122.91Q54.37 124.05 53.74 124.86Q53.45 125.23 53.07 125.53Q51.85 126.47 49.48 127.07L50.02 128.88Q52.61 128.31 54.19 127.35Q55.23 126.71 55.92 125.8Q56.28 125.33 56.54 124.79Q57.31 123.19 57.31 120.73Q57.31 118.76 56.36 117.52Q56.28 117.41 56.19 117.31Q55.97 117.06 55.72 116.86ZM70.04 116.86Q68.98 116.03 67.26 116.03Q66.18 116.03 65.28 116.43Q65.16 116.48 65.05 116.54Q64.5 116.83 64.09 117.24Q63.74 117.57 63.48 118Q63.42 118.1 63.36 118.21Q62.91 119.07 62.91 120.17Q62.91 121.38 63.36 122.28Q63.74 123 64.32 123.46Q64.46 123.57 64.61 123.66Q64.9 123.85 65.22 123.96Q65.75 124.15 66.34 124.15Q67.15 124.15 67.8 123.83Q68.43 123.52 68.9 122.91Q68.7 124.05 68.07 124.86Q67.78 125.23 67.39 125.53Q66.18 126.47 63.81 127.07L64.35 128.88Q66.94 128.31 68.52 127.35Q69.56 126.71 70.25 125.8Q70.61 125.33 70.87 124.79Q71.64 123.19 71.64 120.73Q71.64 118.76 70.69 117.52Q70.61 117.41 70.51 117.31Q70.3 117.06 70.04 116.86ZM79.98 116.86Q78.92 116.03 77.2 116.03Q76.12 116.03 75.22 116.43Q75.1 116.48 74.98 116.54Q74.44 116.83 74.02 117.24Q73.68 117.57 73.42 118Q73.35 118.1 73.3 118.21Q72.84 119.07 72.84 120.17Q72.84 121.38 73.3 122.28Q73.67 123 74.26 123.46Q74.39 123.57 74.54 123.66Q74.84 123.85 75.16 123.96Q75.69 124.15 76.28 124.15Q77.09 124.15 77.74 123.83Q78.36 123.52 78.84 122.91Q78.64 124.05 78.01 124.86Q77.71 125.23 77.33 125.53Q76.12 126.47 73.74 127.07L74.28 128.88Q76.87 128.31 78.45 127.35Q79.5 126.71 80.19 125.8Q80.54 125.33 80.81 124.79Q81.57 123.19 81.57 120.73Q81.57 118.76 80.63 117.52Q80.54 117.41 80.45 117.31Q80.23 117.06 79.98 116.86ZM89.92 116.86Q88.85 116.03 87.13 116.03Q86.06 116.03 85.16 116.43Q85.04 116.48 84.92 116.54Q84.38 116.83 83.96 117.24Q83.61 117.57 83.35 118Q83.29 118.1 83.23 118.21Q82.78 119.07 82.78 120.17Q82.78 121.38 83.24 122.28Q83.61 123 84.19 123.46Q84.33 123.57 84.48 123.66Q84.78 123.85 85.1 123.96Q85.62 124.15 86.22 124.15Q87.02 124.15 87.67 123.83Q88.3 123.52 88.77 122.91Q88.57 124.05 87.94 124.86Q87.65 125.23 87.27 125.53Q86.05 126.47 83.68 127.07L84.22 128.88Q86.81 128.31 88.39 127.35Q89.43 126.71 90.12 125.8Q90.48 125.33 90.74 124.79Q91.51 123.19 91.51 120.73Q91.51 118.76 90.56 117.52Q90.48 117.41 90.39 117.31Q90.17 117.06 89.92 116.86ZM99.85 116.86Q98.79 116.03 97.07 116.03Q95.99 116.03 95.09 116.43Q94.97 116.48 94.86 116.54Q94.31 116.83 93.89 117.24Q93.55 117.57 93.29 118Q93.23 118.1 93.17 118.21Q92.71 119.07 92.71 120.17Q92.71 121.38 93.17 122.28Q93.55 123 94.13 123.46Q94.27 123.57 94.42 123.66Q94.71 123.85 95.03 123.96Q95.56 124.15 96.15 124.15Q96.96 124.15 97.61 123.83Q98.23 123.52 98.71 122.91Q98.51 124.05 97.88 124.86Q97.59 125.23 97.2 125.53Q95.99 126.47 93.62 127.07L94.16 128.88Q96.74 128.31 98.33 127.35Q99.37 126.71 100.06 125.8Q100.42 125.33 100.68 124.79Q101.45 123.19 101.45 120.73Q101.45 118.76 100.5 117.52Q100.41 117.41 100.32 117.31Q100.11 117.06 99.85 116.86ZM114.18 116.86Q113.12 116.03 111.4 116.03Q110.32 116.03 109.42 116.43Q109.3 116.48 109.18 116.54Q108.64 116.83 108.22 117.24Q107.88 117.57 107.62 118Q107.55 118.1 107.5 118.21Q107.04 119.07 107.04 120.17Q107.04 121.38 107.5 122.28Q107.87 123 108.46 123.46Q108.59 123.57 108.74 123.66Q109.04 123.85 109.36 123.96Q109.89 124.15 110.48 124.15Q111.29 124.15 111.94 123.83Q112.56 123.52 113.04 122.91Q112.84 124.05 112.21 124.86Q111.91 125.23 111.53 125.53Q110.32 126.47 107.94 127.07L108.48 128.88Q111.07 128.31 112.66 127.35Q113.7 126.71 114.39 125.8Q114.74 125.33 115.01 124.79Q115.78 123.19 115.78 120.73Q115.78 118.76 114.83 117.52Q114.74 117.41 114.65 117.31Q114.43 117.06 114.18 116.86ZM124.12 116.86Q123.05 116.03 121.33 116.03Q120.26 116.03 119.36 116.43Q119.24 116.48 119.12 116.54Q118.58 116.83 118.16 117.24Q117.81 117.57 117.56 118Q117.49 118.1 117.43 118.21Q116.98 119.07 116.98 120.17Q116.98 121.38 117.44 122.28Q117.81 123 118.39 123.46Q118.53 123.57 118.68 123.66Q118.98 123.85 119.3 123.96Q119.82 124.15 120.42 124.15Q121.22 124.15 121.87 123.83Q122.5 123.52 122.97 122.91Q122.78 124.05 122.14 124.86Q121.85 125.23 121.47 125.53Q120.25 126.47 117.88 127.07L118.42 128.88Q121.01 128.31 122.59 127.35Q123.63 126.71 124.32 125.8Q124.68 125.33 124.94 124.79Q125.71 123.19 125.71 120.73Q125.71 118.76 124.76 117.52Q124.68 117.41 124.59 117.31Q124.37 117.06 124.12 116.86ZM134.05 116.86Q132.99 116.03 131.27 116.03Q130.19 116.03 129.29 116.43Q129.17 116.48 129.06 116.54Q128.51 116.83 128.09 117.24Q127.75 117.57 127.49 118Q127.43 118.1 127.37 118.21Q126.92 119.07 126.92 120.17Q126.92 121.38 127.37 122.28Q127.75 123 128.33 123.46Q128.47 123.57 128.62 123.66Q128.91 123.85 129.23 123.96Q129.76 124.15 130.35 124.15Q131.16 124.15 131.81 123.83Q132.43 123.52 132.91 122.91Q132.71 124.05 132.08 124.86Q131.79 125.23 131.4 125.53Q130.19 126.47 127.82 127.07L128.36 128.88Q130.95 128.31 132.53 127.35Q133.57 126.71 134.26 125.8Q134.62 125.33 134.88 124.79Q135.65 123.19 135.65 120.73Q135.65 118.76 134.7 117.52Q134.61 117.41 134.52 117.31Q134.31 117.06 134.05 116.86ZM143.99 116.86Q142.92 116.03 141.21 116.03Q140.13 116.03 139.23 116.43Q139.11 116.48 138.99 116.54Q138.45 116.83 138.03 117.24Q137.69 117.57 137.43 118Q137.36 118.1 137.3 118.21Q136.85 119.07 136.85 120.17Q136.85 121.38 137.31 122.28Q137.68 123 138.26 123.46Q138.4 123.57 138.55 123.66Q138.85 123.85 139.17 123.96Q139.7 124.15 140.29 124.15Q141.1 124.15 141.75 123.83Q142.37 123.52 142.85 122.91Q142.65 124.05 142.01 124.86Q141.72 125.23 141.34 125.53Q140.13 126.47 137.75 127.07L138.29 128.88Q140.88 128.31 142.46 127.35Q143.51 126.71 144.19 125.8Q144.55 125.33 144.81 124.79Q145.58 123.19 145.58 120.73Q145.58 118.76 144.63 117.52Q144.55 117.41 144.46 117.31Q144.24 117.06 143.99 116.86ZM17.38 118.13Q17.81 117.78 18.54 117.78Q19.23 117.78 19.63 118.11Q19.67 118.15 19.71 118.18Q19.81 118.28 19.88 118.39Q20.12 118.75 20.12 119.27Q20.12 119.9 19.85 120.36Q19.58 120.82 18.93 121.23L18.57 121.11Q17.71 120.76 17.31 120.36Q17.23 120.27 17.16 120.17Q16.92 119.81 16.92 119.29Q16.92 118.67 17.22 118.29Q17.28 118.22 17.35 118.16Q17.36 118.15 17.38 118.13ZM43.44 122.22Q43.14 122.31 42.82 122.31Q42.38 122.31 42.05 122.13Q41.82 122 41.64 121.78Q41.2 121.25 41.2 120.1Q41.2 119.02 41.68 118.45Q41.83 118.27 42.02 118.15Q42.43 117.89 43 117.89Q43.61 117.89 43.99 118.18Q44.22 118.35 44.37 118.63Q44.78 119.38 44.76 121.16Q44.19 121.99 43.44 122.22ZM53.37 122.22Q53.08 122.31 52.75 122.31Q52.32 122.31 51.98 122.13Q51.75 122 51.58 121.78Q51.14 121.25 51.14 120.1Q51.14 119.02 51.61 118.45Q51.77 118.27 51.96 118.15Q52.36 117.89 52.93 117.89Q53.54 117.89 53.93 118.18Q54.16 118.35 54.31 118.63Q54.72 119.38 54.7 121.16Q54.13 121.99 53.37 122.22ZM67.7 122.22Q67.4 122.31 67.08 122.31Q66.64 122.31 66.31 122.13Q66.08 122 65.9 121.78Q65.46 121.25 65.46 120.1Q65.46 119.02 65.94 118.45Q66.09 118.27 66.29 118.15Q66.69 117.89 67.26 117.89Q67.87 117.89 68.26 118.18Q68.49 118.35 68.64 118.63Q69.05 119.38 69.03 121.16Q68.46 121.99 67.7 122.22ZM77.64 122.22Q77.34 122.31 77.02 122.31Q76.58 122.31 76.25 122.13Q76.02 122 75.84 121.78Q75.4 121.25 75.4 120.1Q75.4 119.02 75.88 118.45Q76.03 118.27 76.22 118.15Q76.63 117.89 77.2 117.89Q77.81 117.89 78.19 118.18Q78.42 118.35 78.57 118.63Q78.98 119.38 78.96 121.16Q78.39 121.99 77.64 122.22ZM87.57 122.22Q87.28 122.31 86.95 122.31Q86.52 122.31 86.18 122.13Q85.95 122 85.78 121.78Q85.34 121.25 85.34 120.1Q85.34 119.02 85.81 118.45Q85.97 118.27 86.16 118.15Q86.56 117.89 87.13 117.89Q87.74 117.89 88.13 118.18Q88.36 118.35 88.51 118.63Q88.92 119.38 88.9 121.16Q88.33 121.99 87.57 122.22ZM97.51 122.22Q97.21 122.31 96.89 122.31Q96.45 122.31 96.12 122.13Q95.89 122 95.71 121.78Q95.27 121.25 95.27 120.1Q95.27 119.02 95.75 118.45Q95.9 118.27 96.09 118.15Q96.5 117.89 97.07 117.89Q97.68 117.89 98.06 118.18Q98.29 118.35 98.45 118.63Q98.85 119.38 98.84 121.16Q98.26 121.99 97.51 122.22ZM111.84 122.22Q111.54 122.31 111.22 122.31Q110.78 122.31 110.45 122.13Q110.22 122 110.04 121.78Q109.6 121.25 109.6 120.1Q109.6 119.02 110.08 118.45Q110.23 118.27 110.42 118.15Q110.83 117.89 111.4 117.89Q112.01 117.89 112.39 118.18Q112.62 118.35 112.77 118.63Q113.18 119.38 113.16 121.16Q112.59 121.99 111.84 122.22ZM121.77 122.22Q121.48 122.31 121.15 122.31Q120.72 122.31 120.38 122.13Q120.16 122 119.98 121.78Q119.54 121.25 119.54 120.1Q119.54 119.02 120.01 118.45Q120.17 118.27 120.36 118.15Q120.76 117.89 121.33 117.89Q121.94 117.89 122.33 118.18Q122.56 118.35 122.71 118.63Q123.12 119.38 123.1 121.16Q122.53 121.99 121.77 122.22ZM131.71 122.22Q131.41 122.31 131.09 122.31Q130.65 122.31 130.32 122.13Q130.09 122 129.91 121.78Q129.47 121.25 129.47 120.1Q129.47 119.02 129.95 118.45Q130.1 118.27 130.29 118.15Q130.7 117.89 131.27 117.89Q131.88 117.89 132.26 118.18Q132.49 118.35 132.64 118.63Q133.05 119.38 133.04 121.16Q132.46 121.99 131.71 122.22ZM141.64 122.22Q141.35 122.31 141.03 122.31Q140.59 122.31 140.25 122.13Q140.03 122 139.85 121.78Q139.41 121.25 139.41 120.1Q139.41 119.02 139.88 118.45Q140.04 118.27 140.23 118.15Q140.63 117.89 141.21 117.89Q141.81 117.89 142.2 118.18Q142.43 118.35 142.58 118.63Q142.99 119.38 142.97 121.16Q142.4 121.99 141.64 122.22ZM5.33 121.43L5.33 118.64L3.16 118.64L3.16 121.43L0.48 121.43L0.48 123.43L3.16 123.43L3.16 126.2L5.33 126.2L5.33 123.43L8.02 123.43L8.02 121.43L5.33 121.43ZM29.72 126.61Q29.39 126.81 28.94 126.81Q28.42 126.81 28.06 126.58Q27.74 126.37 27.54 125.98Q27.12 125.14 27.09 123.19Q27.81 122.28 28.67 122.11Q28.87 122.08 29.07 122.08Q29.63 122.08 29.98 122.35Q30.12 122.45 30.23 122.59Q30.61 123.11 30.61 124.29Q30.61 125.48 30.19 126.15Q30 126.45 29.72 126.61ZM19.98 126.35Q19.47 126.81 18.54 126.81Q17.61 126.81 17.07 126.36Q17.07 126.35 17.06 126.35Q16.89 126.2 16.77 126.01Q16.52 125.62 16.52 125.07Q16.52 124.27 16.88 123.7Q17.22 123.16 17.87 122.82L18.45 123.01Q19.6 123.43 20.05 123.88Q20.13 123.96 20.2 124.06Q20.5 124.47 20.5 125.1Q20.5 125.62 20.27 126Q20.16 126.19 19.98 126.35ZM44.12 215.4L44.12 202.06L41.56 201.77L41.56 206.52Q41.01 205.99 40.35 205.76Q39.83 205.57 39.24 205.57Q38.51 205.57 37.89 205.83Q37.53 205.98 37.2 206.22Q37.13 206.27 37.06 206.32Q36.28 206.96 35.84 208.01Q35.37 209.15 35.37 210.63Q35.37 212.97 36.29 214.33Q36.68 214.9 37.22 215.23Q37.96 215.69 38.98 215.69Q39.8 215.69 40.46 215.36Q41.19 215 41.72 214.23L41.87 215.4L44.12 215.4ZM137.73 215.4L137.73 202.06L135.18 201.77L135.18 206.52Q134.63 205.99 133.97 205.76Q133.45 205.57 132.86 205.57Q132.13 205.57 131.51 205.83Q131.15 205.98 130.82 206.22Q130.75 206.27 130.68 206.32Q129.9 206.96 129.46 208.01Q128.98 209.15 128.98 210.63Q128.98 212.97 129.91 214.33Q130.3 214.9 130.84 215.23Q131.58 215.69 132.6 215.69Q133.42 215.69 134.08 215.36Q134.81 215 135.34 214.23L135.48 215.4L137.73 215.4ZM100.1 206.02Q99.46 205.57 98.51 205.57Q97.69 205.57 97.03 205.89Q97.01 205.9 96.99 205.91Q96.31 206.25 95.74 206.94L95.74 201.79L93.18 202.06L93.18 215.4L95.74 215.4L95.74 208.79Q96.48 207.61 97.37 207.49Q97.47 207.48 97.57 207.48Q97.96 207.48 98.21 207.66Q98.29 207.72 98.35 207.79Q98.62 208.11 98.62 208.88L98.62 215.4L101.17 215.4L101.17 208.45Q101.17 207.2 100.56 206.45Q100.51 206.39 100.46 206.34Q100.3 206.16 100.1 206.02ZM10.35 215.4L12.94 215.4L11.98 202.94L8.58 202.94L6.66 211.53L4.6 202.94L1.24 202.94L0.27 215.4L2.84 215.4L3.11 210.39Q3.18 209.17 3.18 207.71Q3.18 206.34 3.11 205.25L5.36 214.07L7.86 214.07L9.97 205.26Q9.95 205.64 9.95 206.48Q9.95 208.07 10.08 210.34L10.35 215.4ZM91.6 205.01L91.89 202.94L82.49 202.94L82.49 205.01L85.8 205.01L85.8 215.4L88.45 215.4L88.45 205.01L91.6 205.01ZM221.77 212.61L222.48 215.4L225.28 215.4L221.47 202.94L218.25 202.94L214.41 215.4L217.17 215.4L217.87 212.61L221.77 212.61ZM235.92 215.4L238.51 215.4L237.56 202.94L234.16 202.94L232.23 211.53L230.18 202.94L226.82 202.94L225.84 215.4L228.42 215.4L228.69 210.39Q228.76 209.17 228.76 207.71Q228.76 206.34 228.69 205.25L230.94 214.07L233.44 214.07L235.55 205.26Q235.53 205.64 235.53 206.48Q235.53 208.07 235.65 210.34L235.92 215.4ZM305.67 203.95Q304.32 202.94 301.9 202.94L298.04 202.94L298.04 215.4L300.69 215.4L300.69 211.15L302.11 211.15Q304.34 211.15 305.67 210.1Q306 209.84 306.24 209.53Q307.01 208.54 307.01 206.95Q307.01 205.53 306.32 204.61Q306.05 204.24 305.67 203.95ZM317.7 215.4L320.29 215.4L319.33 202.94L315.93 202.94L314.01 211.53L311.96 202.94L308.59 202.94L307.62 215.4L310.19 215.4L310.46 210.39Q310.53 209.17 310.53 207.71Q310.53 206.34 310.46 205.25L312.71 214.07L315.21 214.07L317.32 205.26Q317.3 205.64 317.3 206.48Q317.3 208.07 317.43 210.34L317.7 215.4ZM266.99 212.7L266.99 210.75L265.57 210.75L265.57 207.78L263.37 207.78L263.1 210.75L260.58 210.75L263.59 203.8L261.43 203L257.94 210.97L257.94 212.7L263.07 212.7L263.08 215.4L265.57 215.4L265.57 212.7L266.99 212.7ZM182.33 203.65Q181.38 203.03 180.03 203.03Q178.71 203.03 177.77 203.63Q177.17 204.02 176.72 204.66Q175.59 206.29 175.59 209.35Q175.59 212.41 176.72 214.05Q177.17 214.7 177.79 215.09Q178.72 215.69 180.03 215.69Q181.34 215.69 182.27 215.1Q182.89 214.71 183.35 214.05Q184.5 212.41 184.5 209.35Q184.5 206.29 183.36 204.66Q182.92 204.03 182.33 203.65ZM196.84 203.65Q195.89 203.03 194.54 203.03Q193.22 203.03 192.28 203.63Q191.67 204.02 191.23 204.66Q190.1 206.29 190.1 209.35Q190.1 212.41 191.23 214.05Q191.68 214.7 192.29 215.09Q193.23 215.69 194.54 215.69Q195.84 215.69 196.78 215.1Q197.4 214.71 197.86 214.05Q199.01 212.41 199.01 209.35Q199.01 206.29 197.87 204.66Q197.43 204.03 196.84 203.65ZM207.26 203.65Q206.31 203.03 204.96 203.03Q203.64 203.03 202.7 203.63Q202.1 204.02 201.65 204.66Q200.52 206.29 200.52 209.35Q200.52 212.41 201.65 214.05Q202.1 214.7 202.72 215.09Q203.65 215.69 204.96 215.69Q206.27 215.69 207.2 215.1Q207.82 214.71 208.28 214.05Q209.43 212.41 209.43 209.35Q209.43 206.29 208.29 204.66Q207.85 204.03 207.26 203.65ZM278.99 203.65Q278.04 203.03 276.69 203.03Q275.37 203.03 274.43 203.63Q273.82 204.02 273.38 204.66Q272.25 206.29 272.25 209.35Q272.25 212.41 273.38 214.05Q273.83 214.7 274.45 215.09Q275.38 215.69 276.69 215.69Q278 215.69 278.93 215.1Q279.55 214.71 280.01 214.05Q281.16 212.41 281.16 209.35Q281.16 206.29 280.02 204.66Q279.58 204.03 278.99 203.65ZM289.41 203.65Q288.46 203.03 287.12 203.03Q285.79 203.03 284.85 203.63Q284.25 204.02 283.8 204.66Q282.67 206.29 282.67 209.35Q282.67 212.41 283.8 214.05Q284.25 214.7 284.87 215.09Q285.8 215.69 287.12 215.69Q288.42 215.69 289.35 215.1Q289.98 214.71 290.43 214.05Q291.58 212.41 291.58 209.35Q291.58 206.29 290.44 204.66Q290.01 204.03 289.41 203.65ZM173.23 215.4L173.23 203.26L170.98 203.26L166.95 205.69L168.06 207.42L170.73 205.79L170.73 215.4L173.23 215.4ZM303.66 208.68Q303.05 209.2 301.9 209.2L300.69 209.2L300.69 204.85L301.85 204.85Q303.23 204.85 303.82 205.53Q304.27 206.05 304.27 206.95Q304.27 208.13 303.68 208.66Q303.67 208.67 303.66 208.68ZM221.27 210.65L218.37 210.65L219.81 204.9L221.27 210.65ZM179.28 205.13Q179.6 204.94 180.03 204.94Q180.49 204.94 180.82 205.14Q180.96 205.23 181.08 205.35Q181.47 205.75 181.67 206.71Q181.87 207.68 181.87 209.35Q181.87 211.01 181.67 211.97Q181.47 212.93 181.08 213.34Q180.95 213.47 180.81 213.56Q180.48 213.76 180.03 213.76Q179.59 213.76 179.27 213.56Q179.11 213.47 178.99 213.34Q178.59 212.91 178.4 211.95Q178.22 210.98 178.22 209.35Q178.22 207.71 178.4 206.75Q178.59 205.79 178.99 205.36Q179.12 205.22 179.28 205.13ZM193.78 205.13Q194.11 204.94 194.54 204.94Q195 204.94 195.33 205.14Q195.47 205.23 195.58 205.35Q195.98 205.75 196.18 206.71Q196.38 207.68 196.38 209.35Q196.38 211.01 196.18 211.97Q195.98 212.93 195.58 213.34Q195.46 213.47 195.32 213.56Q194.99 213.76 194.54 213.76Q194.1 213.76 193.77 213.56Q193.62 213.47 193.5 213.34Q193.1 212.91 192.91 211.95Q192.72 210.98 192.72 209.35Q192.72 207.71 192.91 206.75Q193.1 205.79 193.5 205.36Q193.63 205.22 193.78 205.13ZM204.21 205.13Q204.53 204.94 204.96 204.94Q205.42 204.94 205.75 205.14Q205.89 205.23 206.01 205.35Q206.4 205.75 206.6 206.71Q206.8 207.68 206.8 209.35Q206.8 211.01 206.6 211.97Q206.4 212.93 206.01 213.34Q205.88 213.47 205.74 213.56Q205.41 213.76 204.96 213.76Q204.52 213.76 204.2 213.56Q204.04 213.47 203.92 213.34Q203.52 212.91 203.33 211.95Q203.15 210.98 203.15 209.35Q203.15 207.71 203.33 206.75Q203.52 205.79 203.92 205.36Q204.05 205.22 204.21 205.13ZM275.94 205.13Q276.26 204.94 276.69 204.94Q277.15 204.94 277.48 205.14Q277.62 205.23 277.74 205.35Q278.13 205.75 278.33 206.71Q278.53 207.68 278.53 209.35Q278.53 211.01 278.33 211.97Q278.13 212.93 277.74 213.34Q277.61 213.47 277.47 213.56Q277.14 213.76 276.69 213.76Q276.25 213.76 275.93 213.56Q275.77 213.47 275.65 213.34Q275.25 212.91 275.06 211.95Q274.88 210.98 274.88 209.35Q274.88 207.71 275.06 206.75Q275.25 205.79 275.65 205.36Q275.78 205.22 275.94 205.13ZM286.36 205.13Q286.68 204.94 287.12 204.94Q287.57 204.94 287.9 205.14Q288.04 205.23 288.16 205.35Q288.55 205.75 288.75 206.71Q288.95 207.68 288.95 209.35Q288.95 211.01 288.75 211.97Q288.55 212.93 288.16 213.34Q288.04 213.47 287.89 213.56Q287.56 213.76 287.12 213.76Q286.67 213.76 286.35 213.56Q286.2 213.47 286.07 213.34Q285.67 212.91 285.49 211.95Q285.3 210.98 285.3 209.35Q285.3 207.71 285.49 206.75Q285.67 205.79 286.07 205.36Q286.2 205.22 286.36 205.13ZM21.63 206.33Q20.55 205.57 18.93 205.57Q17.51 205.57 16.48 206.2Q16.11 206.42 15.81 206.71Q15.25 207.23 14.89 207.97Q14.34 209.11 14.34 210.63Q14.34 212.92 15.47 214.25Q15.51 214.3 15.56 214.35Q15.87 214.69 16.24 214.94Q17.32 215.69 18.91 215.69Q20.3 215.69 21.32 215.08Q21.34 215.07 21.35 215.06Q21.74 214.82 22.06 214.51Q22.59 214 22.94 213.28Q23.48 212.14 23.48 210.63Q23.48 208.31 22.34 206.98Q22.31 206.94 22.28 206.91Q21.98 206.58 21.63 206.33ZM32.4 206.04Q31.75 205.57 30.76 205.57Q29.9 205.57 29.21 205.91Q29.18 205.93 29.15 205.95Q28.44 206.33 27.84 207.06L27.65 205.86L25.43 205.86L25.43 215.4L27.99 215.4L27.99 208.81Q28.4 208.14 28.84 207.81Q29.08 207.63 29.36 207.55Q29.58 207.48 29.82 207.48Q30.25 207.48 30.5 207.69Q30.56 207.74 30.6 207.79Q30.87 208.11 30.87 208.88L30.87 215.4L33.42 215.4L33.42 208.45Q33.42 207.18 32.8 206.42Q32.76 206.38 32.72 206.34Q32.57 206.17 32.4 206.04ZM54.08 213.57Q53.93 213.31 53.93 212.75L53.93 208.9Q53.93 207.42 53.19 206.6Q53.11 206.5 53.01 206.41Q52.09 205.57 50.14 205.57Q48.4 205.57 46.62 206.27L47.19 207.98Q48.71 207.48 49.71 207.48Q50.63 207.48 51.03 207.82Q51.42 208.16 51.42 209.04L51.42 209.51L50.32 209.51Q48.2 209.51 47.07 210.34Q46.65 210.64 46.39 211.04Q45.93 211.74 45.93 212.73Q45.93 213.64 46.33 214.31Q46.51 214.61 46.77 214.87Q46.92 215.02 47.09 215.14Q47.86 215.69 49.03 215.69Q50.23 215.69 51.05 215.12Q51.54 214.79 51.89 214.25Q52.16 214.88 52.63 215.21Q52.67 215.23 52.71 215.26Q53.24 215.58 54.08 215.65L54.63 213.96Q54.25 213.83 54.09 213.58L54.08 213.57ZM126.54 206.13Q125.42 205.57 124.02 205.57Q122.89 205.57 122.03 205.94Q121.17 206.31 120.7 206.95Q120.49 207.24 120.38 207.56Q120.24 207.96 120.24 208.41Q120.24 209.09 120.51 209.63Q120.67 209.95 120.93 210.22Q121.62 210.95 123.07 211.35Q123.98 211.6 124.41 211.79Q124.85 211.98 125.01 212.19Q125.17 212.41 125.17 212.79Q125.17 213.01 125.08 213.18Q124.98 213.4 124.74 213.56Q124.32 213.83 123.6 213.83Q123.31 213.83 123.02 213.79Q121.99 213.63 121.05 212.9L119.79 214.3Q120.49 214.95 121.48 215.32Q122.47 215.69 123.68 215.69Q124.83 215.69 125.76 215.32Q126.62 214.98 127.15 214.36Q127.2 214.31 127.25 214.25Q127.44 214 127.56 213.73Q127.8 213.21 127.8 212.59Q127.8 211.67 127.37 211.05Q127.24 210.86 127.06 210.69Q126.32 210 124.81 209.58Q123.96 209.33 123.54 209.15Q123.12 208.97 122.96 208.77Q122.94 208.74 122.92 208.71Q122.81 208.53 122.81 208.29Q122.81 208.11 122.88 207.97Q122.96 207.79 123.15 207.66Q123.5 207.42 124.12 207.42Q125.29 207.42 126.5 208.18L127.47 206.72Q127.03 206.37 126.54 206.13ZM147.7 213.57Q147.54 213.31 147.54 212.75L147.54 208.9Q147.54 207.42 146.81 206.6Q146.72 206.5 146.63 206.41Q145.71 205.57 143.76 205.57Q142.02 205.57 140.24 206.27L140.81 207.98Q142.32 207.48 143.33 207.48Q144.25 207.48 144.64 207.82Q145.04 208.16 145.04 209.04L145.04 209.51L143.94 209.51Q141.82 209.51 140.69 210.34Q140.27 210.64 140.01 211.04Q139.55 211.74 139.55 212.73Q139.55 213.64 139.95 214.31Q140.13 214.61 140.39 214.87Q140.54 215.02 140.71 215.14Q141.48 215.69 142.64 215.69Q143.85 215.69 144.67 215.12Q145.16 214.79 145.51 214.25Q145.78 214.88 146.25 215.21Q146.29 215.23 146.33 215.26Q146.86 215.58 147.7 215.65L148.24 213.96Q147.87 213.83 147.7 213.58L147.7 213.57ZM119.82 205.73Q119.3 205.59 118.87 205.59Q118.53 205.59 118.23 205.68Q117.77 205.82 117.38 206.15Q116.73 206.7 116.39 207.71L116.15 205.86L113.94 205.86L113.94 215.4L116.49 215.4L116.49 210.47Q116.76 209.26 117.23 208.66Q117.4 208.45 117.62 208.32Q118 208.07 118.54 208.07Q118.89 208.07 119.39 208.2L119.82 205.73ZM59.31 218.22Q60.55 217.23 61.13 215.41L64.2 205.86L61.56 205.86L59.54 213.74L57.63 205.86L54.92 205.86L57.89 215.4L58.77 215.4Q58.35 216.4 57.71 216.87Q57.07 217.34 55.71 217.52L55.97 219.36Q58.08 219.21 59.31 218.22ZM109.21 215.4L111.42 215.4L111.42 205.86L108.86 205.86L108.86 212.54Q108.28 213.53 107.5 213.73Q107.31 213.78 107.11 213.78Q106.66 213.78 106.4 213.55Q106.36 213.51 106.32 213.46Q106.07 213.15 106.07 212.39L106.07 205.86L103.51 205.86L103.51 212.72Q103.51 214.12 104.2 214.9Q104.34 215.06 104.5 215.19Q105.14 215.69 106.18 215.69Q107.14 215.69 107.85 215.3Q108.57 214.91 109.08 214.12L109.21 215.4ZM152.93 218.22Q154.17 217.23 154.74 215.41L157.82 205.86L155.17 205.86L153.16 213.74L151.25 205.86L148.53 205.86L151.5 215.4L152.38 215.4Q151.97 216.4 151.33 216.87Q150.69 217.34 149.33 217.52L149.59 219.36Q151.7 219.21 152.93 218.22ZM160.69 206.42Q160.4 206.29 160.05 206.29Q159.76 206.29 159.5 206.39Q159.21 206.5 158.97 206.74Q158.74 206.97 158.63 207.25Q158.52 207.51 158.52 207.82Q158.52 208.11 158.62 208.37Q158.73 208.67 158.97 208.91Q159.21 209.16 159.51 209.27Q159.76 209.37 160.05 209.37Q160.39 209.37 160.68 209.24Q160.94 209.13 161.15 208.91Q161.39 208.66 161.5 208.37Q161.6 208.11 161.6 207.82Q161.6 207.52 161.5 207.26Q161.39 206.97 161.15 206.74Q160.94 206.53 160.69 206.42ZM40.52 213.61Q40.17 213.78 39.74 213.78Q39.34 213.78 39.03 213.61Q38.7 213.43 38.47 213.06Q38.03 212.34 38.03 210.63Q38.03 209.01 38.53 208.23Q38.8 207.81 39.19 207.62Q39.5 207.46 39.9 207.46Q40.37 207.46 40.74 207.66Q40.77 207.67 40.79 207.68Q41.18 207.91 41.56 208.36L41.56 212.62Q41.16 213.22 40.73 213.5Q40.63 213.56 40.52 213.61ZM134.14 213.61Q133.78 213.78 133.36 213.78Q132.96 213.78 132.65 213.61Q132.32 213.43 132.09 213.06Q131.65 212.34 131.65 210.63Q131.65 209.01 132.14 208.23Q132.42 207.81 132.8 207.62Q133.12 207.46 133.52 207.46Q133.99 207.46 134.36 207.66Q134.39 207.67 134.41 207.68Q134.8 207.91 135.18 208.36L135.18 212.62Q134.78 213.22 134.35 213.5Q134.25 213.56 134.14 213.61ZM17.97 207.73Q18.37 207.48 18.93 207.48Q19.47 207.48 19.85 207.72Q20.15 207.91 20.35 208.24Q20.82 209.01 20.82 210.63Q20.82 212.25 20.34 213.01Q20.13 213.35 19.83 213.53Q19.45 213.78 18.91 213.78Q18.38 213.78 18 213.54Q17.69 213.35 17.48 213.01Q17.01 212.25 17.01 210.63Q17.01 209.01 17.48 208.24Q17.68 207.92 17.97 207.73ZM68.99 208.76L68.99 210.77L77.49 210.77L77.49 208.76L68.99 208.76ZM244.06 208.76L244.06 210.77L252.56 210.77L252.56 208.76L244.06 208.76ZM50.48 213.7Q50.14 213.85 49.73 213.85Q49.24 213.85 48.94 213.61Q48.88 213.56 48.82 213.5Q48.51 213.15 48.51 212.52Q48.51 211.96 48.78 211.6Q49.25 210.97 50.58 210.97L51.42 210.97L51.42 212.79Q51.04 213.45 50.48 213.7ZM144.09 213.7Q143.75 213.85 143.35 213.85Q142.86 213.85 142.56 213.61Q142.5 213.56 142.44 213.5Q142.13 213.15 142.13 212.52Q142.13 211.96 142.39 211.6Q142.87 210.97 144.2 210.97L145.04 210.97L145.04 212.79Q144.66 213.45 144.09 213.7ZM160.69 212.74Q160.4 212.61 160.05 212.61Q159.76 212.61 159.5 212.71Q159.21 212.82 158.97 213.06Q158.74 213.29 158.63 213.57Q158.52 213.83 158.52 214.14Q158.52 214.43 158.62 214.69Q158.73 214.99 158.97 215.23Q159.21 215.48 159.51 215.59Q159.76 215.69 160.05 215.69Q160.39 215.69 160.68 215.56Q160.94 215.45 161.15 215.23Q161.39 214.98 161.5 214.68Q161.6 214.43 161.6 214.14Q161.6 213.84 161.5 213.58Q161.39 213.29 161.15 213.06Q160.94 212.85 160.69 212.74ZM188.03 212.74Q187.74 212.61 187.39 212.61Q187.1 212.61 186.84 212.71Q186.55 212.82 186.31 213.06Q186.08 213.29 185.97 213.57Q185.86 213.83 185.86 214.14Q185.86 214.43 185.96 214.69Q186.08 214.99 186.31 215.23Q186.56 215.48 186.85 215.59Q187.1 215.69 187.39 215.69Q187.74 215.69 188.02 215.56Q188.28 215.45 188.49 215.23Q188.74 214.98 188.85 214.68Q188.94 214.43 188.94 214.14Q188.94 213.84 188.84 213.58Q188.73 213.29 188.49 213.06Q188.28 212.85 188.03 212.74ZM270.18 212.74Q269.89 212.61 269.54 212.61Q269.25 212.61 269 212.71Q268.7 212.82 268.46 213.06Q268.23 213.29 268.12 213.57Q268.02 213.83 268.02 214.14Q268.02 214.43 268.12 214.69Q268.23 214.99 268.46 215.23Q268.71 215.48 269 215.59Q269.26 215.69 269.54 215.69Q269.89 215.69 270.17 215.56Q270.43 215.45 270.64 215.23Q270.89 214.98 271 214.68Q271.1 214.43 271.1 214.14Q271.1 213.84 270.99 213.58Q270.88 213.29 270.64 213.06Q270.44 212.85 270.18 212.74ZM18.2 230.15Q17.84 229.94 17.37 229.94Q16.88 229.94 16.51 230.16Q16.37 230.25 16.25 230.37Q16.09 230.52 15.99 230.71Q15.82 231.03 15.82 231.44Q15.82 231.83 15.98 232.14Q16.08 232.34 16.25 232.51Q16.37 232.63 16.51 232.71Q16.88 232.93 17.37 232.93Q17.84 232.93 18.2 232.73Q18.36 232.64 18.49 232.51Q18.68 232.33 18.79 232.11Q18.93 231.81 18.93 231.44Q18.93 231.05 18.78 230.74Q18.67 230.54 18.49 230.37Q18.36 230.24 18.2 230.15ZM29.45 244.4L29.45 231.06L26.89 230.77L26.89 235.52Q26.34 234.99 25.68 234.76Q25.16 234.57 24.57 234.57Q23.84 234.57 23.22 234.83Q22.86 234.98 22.53 235.22Q22.46 235.27 22.39 235.32Q21.61 235.96 21.17 237.01Q20.7 238.15 20.7 239.63Q20.7 241.97 21.62 243.33Q22.01 243.9 22.55 244.23Q23.29 244.69 24.31 244.69Q25.13 244.69 25.79 244.36Q26.52 244 27.05 243.23L27.2 244.4L29.45 244.4ZM70.48 244.22Q71.09 244.69 72.07 244.69Q72.97 244.69 73.71 244.36L73.18 242.54Q72.97 242.65 72.68 242.65Q72.47 242.65 72.34 242.55Q72.16 242.4 72.16 242.02L72.16 230.77L69.6 231.06L69.6 242.09Q69.6 243.27 70.18 243.94Q70.22 243.98 70.25 244.01Q70.36 244.12 70.48 244.22ZM66.6 231.99Q65.73 231.65 64.56 231.65Q63.39 231.65 62.4 232.07Q62.05 232.22 61.72 232.42Q61.49 232.56 61.27 232.72Q60.33 233.45 59.74 234.65Q59.02 236.12 59.02 238.15Q59.02 240.24 59.72 241.71Q60.27 242.86 61.18 243.58Q61.42 243.77 61.68 243.93Q61.77 243.98 61.86 244.03Q63.06 244.69 64.62 244.69Q65.81 244.69 66.79 244.25Q67.77 243.8 68.43 243.12L67.21 241.59Q66.58 242.08 66 242.34Q65.43 242.6 64.72 242.6Q64.04 242.6 63.5 242.31Q62.98 242.04 62.59 241.51Q61.81 240.42 61.81 238.15Q61.81 235.83 62.59 234.74Q62.99 234.19 63.53 233.92Q64.05 233.65 64.71 233.65Q64.9 233.65 65.08 233.67Q66.07 233.79 66.97 234.53L68.29 233Q67.46 232.32 66.6 231.99ZM0.86 231.94L0.86 244.4L3.51 244.4L3.51 239.32L7.25 239.32L7.25 237.4L3.51 237.4L3.51 233.87L7.81 233.87L8.1 231.94L0.86 231.94ZM39.41 242.57Q39.26 242.31 39.26 241.75L39.26 237.9Q39.26 236.42 38.52 235.6Q38.44 235.5 38.34 235.41Q37.42 234.57 35.47 234.57Q33.73 234.57 31.95 235.27L32.52 236.98Q34.04 236.48 35.04 236.48Q35.96 236.48 36.36 236.82Q36.75 237.16 36.75 238.04L36.75 238.51L35.65 238.51Q33.53 238.51 32.4 239.34Q31.98 239.64 31.72 240.04Q31.26 240.74 31.26 241.73Q31.26 242.64 31.66 243.31Q31.84 243.61 32.1 243.87Q32.25 244.02 32.42 244.14Q33.19 244.69 34.36 244.69Q35.56 244.69 36.38 244.12Q36.87 243.79 37.22 243.25Q37.49 243.88 37.96 244.21Q38 244.23 38.04 244.26Q38.57 244.58 39.41 244.65L39.96 242.96Q39.58 242.83 39.42 242.58L39.41 242.57ZM81.64 235.33Q80.56 234.57 78.94 234.57Q77.52 234.57 76.49 235.2Q76.12 235.42 75.82 235.71Q75.26 236.23 74.91 236.97Q74.36 238.11 74.36 239.63Q74.36 241.92 75.49 243.25Q75.53 243.3 75.57 243.35Q75.88 243.69 76.25 243.94Q77.33 244.69 78.93 244.69Q80.31 244.69 81.33 244.08Q81.35 244.07 81.37 244.06Q81.75 243.82 82.07 243.51Q82.61 243 82.95 242.28Q83.5 241.14 83.5 239.63Q83.5 237.31 82.35 235.98Q82.32 235.94 82.29 235.91Q81.99 235.58 81.64 235.33ZM91.14 235.13Q90.01 234.57 88.61 234.57Q87.48 234.57 86.62 234.94Q85.76 235.31 85.29 235.95Q85.09 236.24 84.97 236.56Q84.83 236.96 84.83 237.41Q84.83 238.09 85.1 238.63Q85.26 238.95 85.52 239.22Q86.22 239.95 87.66 240.35Q88.57 240.6 89 240.79Q89.44 240.98 89.6 241.19Q89.76 241.41 89.76 241.79Q89.76 242.01 89.68 242.18Q89.57 242.4 89.34 242.56Q88.92 242.83 88.2 242.83Q87.9 242.83 87.61 242.79Q86.58 242.63 85.64 241.9L84.38 243.3Q85.08 243.95 86.07 244.32Q87.06 244.69 88.27 244.69Q89.42 244.69 90.36 244.32Q91.21 243.98 91.75 243.36Q91.8 243.31 91.84 243.25Q92.03 243 92.16 242.73Q92.39 242.21 92.39 241.59Q92.39 240.67 91.96 240.05Q91.83 239.86 91.65 239.69Q90.92 239 89.4 238.58Q88.56 238.33 88.13 238.15Q87.71 237.97 87.56 237.77Q87.53 237.74 87.51 237.71Q87.4 237.53 87.4 237.29Q87.4 237.11 87.47 236.97Q87.56 236.79 87.75 236.66Q88.09 236.42 88.72 236.42Q89.89 236.42 91.1 237.18L92.07 235.72Q91.63 235.37 91.14 235.13ZM102.07 240.4Q102.13 239.59 102.13 239.41Q102.13 237.12 101 235.85Q100.71 235.53 100.37 235.29Q99.35 234.57 97.83 234.57Q96.68 234.57 95.8 235.05Q95.64 235.14 95.49 235.24Q95.23 235.42 94.99 235.64Q94.37 236.22 94 237.06Q93.49 238.22 93.49 239.68Q93.49 241.82 94.53 243.14Q94.61 243.24 94.69 243.34Q94.93 243.6 95.2 243.81Q96.34 244.69 98.15 244.69Q99.05 244.69 99.86 244.43Q100.88 244.11 101.77 243.39L100.71 241.95Q100.08 242.38 99.54 242.58Q99.52 242.58 99.51 242.59Q98.98 242.78 98.39 242.78Q97.49 242.78 96.94 242.34Q96.88 242.29 96.82 242.24Q96.24 241.7 96.12 240.4L102.07 240.4ZM14.85 234.73Q14.32 234.59 13.89 234.59Q13.56 234.59 13.25 234.68Q12.8 234.82 12.41 235.15Q11.75 235.7 11.41 236.71L11.18 234.86L8.96 234.86L8.96 244.4L11.52 244.4L11.52 239.47Q11.79 238.26 12.25 237.66Q12.42 237.45 12.64 237.32Q13.03 237.07 13.57 237.07Q13.91 237.07 14.42 237.2L14.85 234.73ZM18.66 244.4L18.66 234.86L16.11 234.86L16.11 244.4L18.66 244.4ZM44.64 247.22Q45.88 246.23 46.46 244.41L49.53 234.86L46.89 234.86L44.87 242.74L42.96 234.86L40.25 234.86L43.22 244.4L44.1 244.4Q43.68 245.4 43.04 245.87Q42.4 246.34 41.04 246.52L41.3 248.36Q43.41 248.21 44.64 247.22ZM52.4 235.42Q52.11 235.29 51.76 235.29Q51.47 235.29 51.21 235.39Q50.92 235.5 50.68 235.74Q50.45 235.97 50.34 236.25Q50.23 236.51 50.23 236.82Q50.23 237.11 50.33 237.37Q50.44 237.67 50.68 237.91Q50.93 238.16 51.22 238.27Q51.47 238.37 51.76 238.37Q52.11 238.37 52.39 238.24Q52.65 238.13 52.86 237.91Q53.1 237.66 53.22 237.37Q53.31 237.11 53.31 236.82Q53.31 236.52 53.21 236.26Q53.1 235.97 52.86 235.74Q52.65 235.53 52.4 235.42ZM98.85 236.59Q99.59 237.13 99.59 238.69L99.59 238.8L96.12 238.8Q96.21 237.48 96.65 236.9Q96.83 236.66 97.06 236.52Q97.41 236.32 97.88 236.32Q98.46 236.32 98.85 236.59ZM25.85 242.61Q25.5 242.78 25.07 242.78Q24.67 242.78 24.36 242.61Q24.03 242.43 23.8 242.06Q23.36 241.34 23.36 239.63Q23.36 238.01 23.86 237.23Q24.13 236.81 24.52 236.62Q24.83 236.46 25.23 236.46Q25.7 236.46 26.07 236.66Q26.1 236.67 26.12 236.68Q26.51 236.91 26.89 237.36L26.89 241.62Q26.49 242.22 26.06 242.5Q25.96 242.56 25.85 242.61ZM77.99 236.73Q78.38 236.48 78.94 236.48Q79.48 236.48 79.87 236.72Q80.16 236.91 80.36 237.24Q80.83 238.01 80.83 239.63Q80.83 241.25 80.35 242.01Q80.15 242.35 79.85 242.53Q79.46 242.78 78.93 242.78Q78.39 242.78 78.01 242.54Q77.71 242.35 77.49 242.01Q77.02 241.25 77.02 239.63Q77.02 238.01 77.49 237.24Q77.7 236.92 77.99 236.73ZM35.81 242.7Q35.47 242.85 35.06 242.85Q34.57 242.85 34.27 242.61Q34.21 242.56 34.15 242.5Q33.84 242.15 33.84 241.52Q33.84 240.96 34.11 240.6Q34.58 239.97 35.91 239.97L36.75 239.97L36.75 241.79Q36.37 242.45 35.81 242.7ZM52.4 241.74Q52.11 241.61 51.76 241.61Q51.47 241.61 51.21 241.71Q50.92 241.82 50.68 242.06Q50.45 242.29 50.34 242.57Q50.23 242.83 50.23 243.14Q50.23 243.43 50.33 243.69Q50.44 243.99 50.68 244.23Q50.93 244.48 51.22 244.59Q51.47 244.69 51.76 244.69Q52.11 244.69 52.39 244.56Q52.65 244.45 52.86 244.23Q53.1 243.98 53.22 243.68Q53.31 243.43 53.31 243.14Q53.31 242.84 53.21 242.58Q53.1 242.29 52.86 242.06Q52.65 241.85 52.4 241.74Z" fill="#FFFFFF" fill-opacity="1.000000" fill-rule="evenodd"/>
</svg>
