<svg width="31.000000" height="31.000000" viewBox="0 0 31 31" fill="none" xmlns="http://www.w3.org/2000/svg" xmlns:xlink="http://www.w3.org/1999/xlink">
	<desc>
			Created with Pixso.
	</desc>
	<defs/>
	<path id="icon-phone" d="M31 24.49C31 24.33 31 24.11 30.94 24C30.78 23.46 26.33 21.19 25.51 20.7C24.91 20.37 24.21 19.72 23.56 19.72C22.2 19.72 20.25 23.68 19.05 23.68C18.45 23.68 17.69 23.14 17.15 22.81C13.13 20.59 10.36 17.83 8.14 13.87C7.81 13.33 7.27 12.57 7.27 11.97C7.27 10.78 11.23 8.83 11.23 7.47C11.23 6.77 10.58 6.06 10.26 5.52C9.77 4.66 7.54 0.27 7 0.05C6.84 0 6.67 0 6.51 0C5.7 0 4.18 0.37 3.47 0.65C1.46 1.57 0 5.36 0 7.47C0 9.48 0.81 11.32 1.52 13.22C3.9 19.83 11.12 27.04 17.75 29.48C19.65 30.18 21.49 31 23.56 31C25.62 31 29.42 29.53 30.34 27.53C30.67 26.82 31 25.25 31 24.49Z" fill="#FFFFFF" fill-opacity="1.000000" fill-rule="nonzero"/>
</svg>